<svg xmlns="http://www.w3.org/2000/svg" version="1.1" xmlns:xlink="http://www.w3.org/1999/xlink" xmlns:svgjs="http://svgjs.com/svgjs" width="1440" height="560" preserveAspectRatio="none" viewBox="0 0 1440 560"><g mask="url(&quot;#SvgjsMask1161&quot;)" fill="none"><path d="M981.2435551679889 22.17348705030414L835.1921270353578-36.835120235957476 776.1835197490961 109.2163078966737 922.2349478817273 168.22491518293532z" fill="rgba(200, 203, 255, 1)" class="triangle-float2"></path><path d="M93.495,492.142C145.326,492.567,192.061,460.927,216.507,415.221C239.655,371.942,230.499,321.713,207.972,278.107C182.939,229.649,147.97,179.814,93.495,177.105C35.572,174.225,-16.359,213.909,-42.559,265.649C-66.527,312.982,-53.395,367.754,-26.075,413.234C0.281,457.109,42.315,491.723,93.495,492.142" fill="rgba(200, 203, 255, 1)" class="triangle-float3"></path><path d="M727.2,469.04C771.879,469.678,818.554,452.443,838.825,412.621C857.842,375.262,835.949,333.786,814.333,297.868C793.659,263.514,767.288,227.898,727.2,227.136C686.174,226.357,654.791,258.988,634.137,294.444C613.309,330.198,601.499,372.995,620.962,409.51C641.427,447.904,683.696,468.419,727.2,469.04" fill="rgba(200, 203, 255, 1)" class="triangle-float3"></path><path d="M1078.5742852153805 482.76059131250094L959.0723314276138 436.888089136913 913.1998292520259 556.3900429246797 1032.7017830397926 602.2625451002677z" fill="rgba(200, 203, 255, 1)" class="triangle-float1"></path><path d="M596.045,703.729C636.707,704.101,674.666,683.482,695.652,648.652C717.343,612.651,718.885,568.671,700.066,531.088C678.942,488.902,643.162,452.158,596.045,449.732C545.19,447.114,494.048,473.593,471.659,519.329C451.154,561.217,473.468,608.192,499.549,646.856C521.927,680.031,556.03,703.363,596.045,703.729" fill="rgba(200, 203, 255, 1)" class="triangle-float3"></path><path d="M86.00330766328203 66.80581291363639L0.10162137240428137 46.973845985025875 13.304514124927394 185.74235888564775z" fill="rgba(200, 203, 255, 1)" class="triangle-float3"></path><path d="M56.41,310.807C83.488,310.975,110.274,298.666,123.124,274.83C135.443,251.977,128.368,224.733,114.715,202.651C101.868,181.872,80.838,166.58,56.41,166.925C32.51,167.263,13.336,183.852,0.893,204.26C-12.207,225.744,-20.51,251.695,-8.882,274.01C3.491,297.756,29.635,310.64,56.41,310.807" fill="rgba(200, 203, 255, 1)" class="triangle-float3"></path><path d="M415.24114000108915 364.2022218057152L548.1210210068921 368.8424895004098 552.7612887015866 235.9626084946069 419.8814076957837 231.32234079991235z" fill="rgba(200, 203, 255, 1)" class="triangle-float2"></path><path d="M1322.005,447.366C1354.811,447.663,1390.087,442.704,1408.032,415.24C1427.42,385.567,1425.876,346.529,1407.82,316.028C1390.091,286.079,1356.785,268.663,1322.005,269.924C1289.231,271.112,1262.78,293.509,1246.329,321.881C1229.815,350.361,1221.634,385.516,1238.635,413.707C1255.223,441.213,1289.885,447.075,1322.005,447.366" fill="rgba(200, 203, 255, 1)" class="triangle-float1"></path><path d="M1353.727,517.827C1384.539,518.605,1416.239,509.441,1432.873,483.493C1450.754,455.598,1452.052,419.287,1435.168,390.777C1418.574,362.758,1386.233,347.902,1353.727,349.85C1324.212,351.619,1302.023,373.808,1287.603,399.621C1273.612,424.666,1267.203,454.629,1281.209,479.666C1295.502,505.216,1324.46,517.088,1353.727,517.827" fill="rgba(200, 203, 255, 1)" class="triangle-float3"></path></g><defs><mask id="SvgjsMask1161"><rect width="1440" height="560" fill="#ffffff"></rect></mask><style>
            @keyframes float1 {
                0%{transform: translate(0, 0)}
                50%{transform: translate(-10px, 0)}
                100%{transform: translate(0, 0)}
            }

            .triangle-float1 {
                animation: float1 5s infinite;
            }

            @keyframes float2 {
                0%{transform: translate(0, 0)}
                50%{transform: translate(-5px, -5px)}
                100%{transform: translate(0, 0)}
            }

            .triangle-float2 {
                animation: float2 4s infinite;
            }

            @keyframes float3 {
                0%{transform: translate(0, 0)}
                50%{transform: translate(0, -10px)}
                100%{transform: translate(0, 0)}
            }

            .triangle-float3 {
                animation: float3 6s infinite;
            }
        </style></defs></svg>