<?xml version="1.0" encoding="UTF-8"?>
<svg fill='#f15454' width="700pt" height="700pt" version="1.1" viewBox="0 0 700 550" xmlns="http://www.w3.org/2000/svg">
 <path d="m348.66 42.004h-0.22656c-20.98 0.16797-34.387 11.809-41.547 20.871-7.1602 9.0625-10.141 14.789-22.73 18.973-12.59 4.1797-18.445 1.3984-29.605-1.5781-11.16-2.9766-28.781-4.3203-45.676 8.125-16.891 12.445-20.898 29.844-21.367 41.383-0.45312 11.539 0.39844 17.797-7.3047 28.582-7.7266 10.785-14.031 12.035-24.809 16.191s-25.887 13.453-32.234 33.449c-6.3516 20 0.59766 36.297 7.0078 45.906 6.4062 9.6094 10.887 14.207 10.977 27.473 0.10938 13.266-4.3477 18.012-10.625 27.703-6.2773 9.6953-13.008 26.141-6.3906 46.051 6.6172 19.91 21.867 28.934 32.699 32.945s17.191 5.1289 25.062 15.809c7.8672 10.68 7.0469 17.035 7.668 28.57 0.62109 11.531 4.7891 28.801 21.852 41.02 17.059 12.219 34.75 10.676 45.871 7.5547s16.879-5.9688 29.52-1.9531c12.645 4.0156 15.707 9.6758 22.988 18.641s20.801 20.422 41.781 20.281c20.984-0.16797 34.387-11.809 41.547-20.871 7.1602-9.0625 10.152-14.688 22.738-18.871 12.59-4.1797 18.434-1.5039 29.594 1.4688 11.16 2.9766 28.781 4.3203 45.676-8.125 16.895-12.445 20.91-29.742 21.379-41.281 0.45312-11.539-0.45312-17.898 7.293-28.684 7.7266-10.785 14.043-11.934 24.82-16.086 10.777-4.1562 25.875-13.555 32.223-33.551 6.3516-20-0.59766-36.297-7.0039-45.906-6.4102-9.6094-10.891-14.207-10.977-27.469-0.11328-13.266 4.2578-17.898 10.531-27.59 6.2773-9.6992 13.109-26.152 6.4922-46.066-6.6172-19.91-21.875-29.035-32.707-33.047-10.832-4.0078-17.191-5.1289-25.062-15.809-7.8672-10.68-7.0469-17.035-7.668-28.57-0.62109-11.531-4.7891-28.801-21.852-41.02-17.059-12.219-34.738-10.574-45.855-7.4492-11.121 3.1211-16.891 5.8594-29.535 1.8477-12.641-4.0156-15.695-9.5703-22.973-18.535-7.2539-8.9336-20.707-20.438-41.551-20.387zm0.50781 28.062c12.762-0.011718 13.227 2.4375 19.316 9.9375 6.1875 7.6172 16.172 21.277 36.266 27.656s36.117 0.98438 45.566-1.6641c9.4492-2.6523 11.141-4.418 22.004 3.3594 10.863 7.7812 9.6914 9.957 10.219 19.758 0.50781 9.8008 0.59375 26.691 13.102 43.664 12.504 16.973 28.578 22 37.781 25.406s11.672 2.9062 15.887 15.59c4.2148 12.68 1.9727 13.766-3.3594 22.004-5.332 8.2383-15.184 21.988-15.043 43.066 0.16797 21.082 10.156 34.594 15.598 42.762 5.4414 8.1641 7.6445 9.2188 3.5977 21.953-4.043 12.738-6.4297 12.355-15.59 15.887-9.1562 3.5312-25.168 8.7852-37.445 25.922-12.277 17.137-12.168 34.027-12.566 43.832-0.39844 9.8047 0.82031 12.004-9.9375 19.934-10.758 7.9258-12.473 6.1289-21.953 3.6016-9.4766-2.5273-25.547-7.6836-45.551-1.0312-20.008 6.6523-29.879 20.344-35.961 28.043-6.0859 7.6992-6.2812 10.219-19.645 10.309-13.363 0.10937-13.758-2.4219-19.945-10.039-6.1836-7.6172-16.16-21.176-36.254-27.555-20.09-6.3789-36.129-1.0898-45.578 1.5664-9.4453 2.6523-11.129 4.5273-21.992-3.2578-10.863-7.7812-9.6914-9.957-10.215-19.758-0.51172-9.7969-0.59375-26.691-13.102-43.66-12.508-16.973-28.59-22.105-37.793-25.512-9.2031-3.4062-11.672-2.9102-15.887-15.59s-1.9727-13.766 3.3594-22.004c5.332-8.2383 15.195-21.883 15.055-42.965-0.10938-21.082-10.168-34.695-15.609-42.863-5.4414-8.1641-7.6445-9.2188-3.5977-21.953 4.043-12.738 6.4414-12.254 15.598-15.781 9.1562-3.5352 25.168-8.7852 37.445-25.922s12.156-34.129 12.555-43.934c0.39844-9.8047-0.80859-11.902 9.9453-19.828 10.758-7.9258 12.473-6.1289 21.953-3.6016 9.4844 2.5273 25.551 7.6875 45.559 1.0352 20.008-6.6484 29.762-20.434 35.848-28.137 6.082-7.6992 6.3945-10.129 19.758-10.219v-0.003906c0.22656 0 0.39844-0.003907 0.61719-0.003907zm-60.598 99.746c-12.301 0-24.602 4.6484-33.91 13.957-18.609 18.609-18.609 49.207 0 67.816 18.609 18.609 49.207 18.609 67.816 0 18.609-18.609 18.609-49.207 0-67.816-9.3008-9.3047-21.602-13.957-33.902-13.957zm0 27.82c5.0781 0 10.156 1.9805 14.109 5.9336 7.9102 7.9102 7.9102 20.309 0 28.219-7.9102 7.9102-20.312 7.9102-28.223 0s-7.9102-20.312 0-28.223c3.9531-3.9531 9.0312-5.9336 14.109-5.9336zm127.55 4.6328h0.003906c-3.7148 0-7.2734 1.4766-9.8984 4.1016l-128.96 128.96c-2.625 2.625-4.1016 6.1836-4.1016 9.8984 0 3.7109 1.4766 7.2734 4.1016 9.8984s6.1875 4.1016 9.8984 4.1016c3.7148 0 7.2734-1.4766 9.8984-4.1016l128.96-128.96c5.4648-5.4648 5.4648-14.328 0-19.797-2.625-2.625-6.1875-4.1016-9.8984-4.1016zm-1.4102 93.684c-12.301 0-24.602 4.6562-33.906 13.957-18.609 18.609-18.609 49.207 0 67.816s49.207 18.609 67.816 0c18.609-18.609 18.609-49.207 0-67.816-9.3008-9.3008-21.605-13.953-33.906-13.953zm0 27.82c5.0781 0 10.156 1.9805 14.109 5.9336 7.9102 7.9102 7.9102 20.312 0 28.223-7.9102 7.9102-20.312 7.9102-28.223 0-7.9102-7.9102-7.9102-20.312 0-28.223 3.9531-3.9531 9.0312-5.9336 14.109-5.9336z"/>
</svg>
