<?xml version="1.0" encoding="UTF-8"?>
<svg fill='#6427FF' width="700pt" height="700pt" version="1.1" viewBox="0 0 700 600" xmlns="http://www.w3.org/2000/svg" xmlns:xlink="http://www.w3.org/1999/xlink">
 <defs>
  <symbol id="x" overflow="visible">
   <path d="m18.766-1.125c-0.96875 0.5-1.9805 0.875-3.0312 1.125-1.043 0.25781-2.1367 0.39062-3.2812 0.39062-3.3984 0-6.0898-0.94531-8.0781-2.8438-1.9922-1.9062-2.9844-4.4844-2.9844-7.7344 0-3.2578 0.99219-5.8359 2.9844-7.7344 1.9883-1.9062 4.6797-2.8594 8.0781-2.8594 1.1445 0 2.2383 0.13281 3.2812 0.39062 1.0508 0.25 2.0625 0.625 3.0312 1.125v4.2188c-0.98047-0.65625-1.9453-1.1406-2.8906-1.4531-0.94922-0.3125-1.9492-0.46875-3-0.46875-1.875 0-3.3516 0.60547-4.4219 1.8125-1.0742 1.1992-1.6094 2.8555-1.6094 4.9688 0 2.1055 0.53516 3.7617 1.6094 4.9688 1.0703 1.1992 2.5469 1.7969 4.4219 1.7969 1.0508 0 2.0508-0.14844 3-0.45312 0.94531-0.3125 1.9102-0.80078 2.8906-1.4688z"/>
  </symbol>
 </defs>
 <g>
  <path d="m493.36 253.68-122.08-122.08c-5.6016-5.6016-13.441-8.4023-21.281-8.4023s-15.68 2.8008-21.281 8.9609l-122.08 121.52c-11.762 11.762-11.762 30.801 0 42.559 7.8398 7.8398 18.48 10.078 28 7.8398v99.121c0 18.48 15.121 33.602 33.602 33.602h160.16c18.48 0 33.602-15.121 33.602-33.602v-99.68c10.641 3.9219 22.961 1.6797 31.359-6.7188 11.762-12.32 11.762-31.359 0-43.121z"/>
 </g>
</svg>
