<?xml version="1.0" encoding="UTF-8"?>
<svg fill='#6427FF' width="700pt" height="700pt" version="1.1" viewBox="0 0 700 600" xmlns="http://www.w3.org/2000/svg">
 <path d="m233.33 303.33v210c0 6.1914-2.457 12.125-6.832 16.5s-10.312 6.8359-16.5 6.8359h-93.332c-6.1914 0-12.125-2.4609-16.5-6.8359s-6.8359-10.309-6.8359-16.5v-210c0-6.1875 2.4609-12.121 6.8359-16.496 4.375-4.3789 10.309-6.8359 16.5-6.8359h93.332c6.1875 0 12.125 2.457 16.5 6.8359 4.375 4.375 6.832 10.309 6.832 16.496zm163.34-280h-93.336c-6.1875 0-12.121 2.4609-16.496 6.8359-4.3789 4.375-6.8359 10.309-6.8359 16.5v466.66c0 6.1914 2.457 12.125 6.8359 16.5 4.375 4.375 10.309 6.8359 16.496 6.8359h93.336c6.1875 0 12.121-2.4609 16.496-6.8359 4.3789-4.375 6.8359-10.309 6.8359-16.5v-466.66c0-6.1914-2.457-12.125-6.8359-16.5-4.375-4.375-10.309-6.8359-16.496-6.8359zm186.67 116.67h-93.336c-6.1875 0-12.125 2.457-16.5 6.8359-4.375 4.375-6.832 10.309-6.832 16.496v350c0 6.1914 2.457 12.125 6.832 16.5s10.312 6.8359 16.5 6.8359h93.332c6.1914 0 12.125-2.4609 16.5-6.8359s6.8359-10.309 6.8359-16.5v-350c0-6.1875-2.4609-12.121-6.8359-16.496-4.375-4.3789-10.309-6.8359-16.5-6.8359z"/>
</svg>
