<?xml version="1.0" encoding="UTF-8"?>
<svg fill='white' width="700pt" height="700pt" version="1.1" viewBox="0 0 700 600" xmlns="http://www.w3.org/2000/svg">
 <path d="m467.07 233.1c3.0508 3.2812 4.7305 7.6094 4.6836 12.09-0.046874 4.4844-1.8086 8.7773-4.9258 11.996-3.1211 3.2227-7.3555 5.1211-11.832 5.3125h-140c-6.2539 0-12.031-3.3359-15.156-8.75s-3.125-12.086 0-17.5 8.9023-8.75 15.156-8.75h97.477l-20.301-20.301c-3.2617-3.2773-5.0898-7.7148-5.0898-12.336 0-4.625 1.8281-9.0586 5.0898-12.34 3.2773-3.2578 7.7148-5.0859 12.336-5.0859 4.625 0 9.0586 1.8281 12.34 5.0859zm-81.199 64.398h-140c-3.4531 0.015625-6.8281 1.0586-9.6914 2.9883-2.8672 1.9297-5.0977 4.6641-6.4102 7.8633-1.3164 3.2031-1.6562 6.7266-0.96875 10.121 0.68359 3.3945 2.3633 6.5117 4.8203 8.9531l50.227 50.227v-0.003906c3.2578 3.2344 7.6562 5.0586 12.25 5.0781 4.6484 0.023438 9.1211-1.8008 12.422-5.0781 3.2617-3.2773 5.0898-7.7109 5.0898-12.336s-1.8281-9.0586-5.0898-12.336l-20.125-20.477h97.477c6.2539 0 12.031-3.3359 15.156-8.75s3.125-12.086 0-17.5-8.9023-8.75-15.156-8.75zm174.12-157.5v280c0 18.566-7.375 36.371-20.504 49.496-13.125 13.129-30.93 20.504-49.496 20.504h-280c-18.566 0-36.371-7.375-49.496-20.504-13.129-13.125-20.504-30.93-20.504-49.496v-280c0-18.566 7.375-36.371 20.504-49.496 13.125-13.129 30.93-20.504 49.496-20.504h280c18.566 0 36.371 7.375 49.496 20.504 13.129 13.125 20.504 30.93 20.504 49.496zm-35 70c0-27.848-11.062-54.555-30.754-74.246s-46.398-30.754-74.246-30.754h-210c-9.2812 0-18.184 3.6875-24.75 10.25-6.5625 6.5664-10.25 15.469-10.25 24.75v280c0 9.2812 3.6875 18.184 10.25 24.75 6.5664 6.5625 15.469 10.25 24.75 10.25h105c55.695 0 109.11-22.125 148.49-61.508 39.383-39.383 61.508-92.797 61.508-148.49z"/>
</svg>
