<?xml version="1.0" encoding="UTF-8"?>
<svg fill='#C7CACF' width="700pt" height="700pt" version="1.1" viewBox="0 0 700 550" xmlns="http://www.w3.org/2000/svg" xmlns:xlink="http://www.w3.org/1999/xlink">
 <g>
  <path d="m460.94 81.871c-6.3047-6.3086-14.855-9.8555-23.773-9.8555-8.918 0-17.469 3.5469-23.773 9.8555l-174.33 174.39c-6.2891 6.2969-9.8242 14.84-9.8242 23.742s3.5352 17.445 9.8242 23.742l174.39 174.39c8.5039 8.3789 20.816 11.613 32.344 8.5 11.523-3.1172 20.531-12.113 23.66-23.633 3.1289-11.523-0.09375-23.84-8.4609-32.355l-150.7-150.64 150.64-150.64c6.2891-6.3008 9.8242-14.84 9.8242-23.742 0-8.9062-3.5352-17.445-9.8242-23.746z"/>
 </g>
</svg>
