<svg xmlns="http://www.w3.org/2000/svg" version="1.1" xmlns:xlink="http://www.w3.org/1999/xlink" xmlns:svgjs="http://svgjs.com/svgjs" width="1440" height="560" preserveAspectRatio="none" viewBox="0 0 1440 560"><g mask="url(&quot;#SvgjsMask1728&quot;)" fill="none"><rect width="1440" height="560" x="0" y="0" fill="url(#SvgjsLinearGradient1729)"></rect><path d="M1440 0L1273.47 0L1440 221.94z" fill="rgba(255, 255, 255, .1)"></path><path d="M1273.47 0L1440 221.94L1440 396.08L1233.74 0z" fill="rgba(255, 255, 255, .075)"></path><path d="M1233.74 0L1440 396.08L1440 458.78999999999996L864.19 0z" fill="rgba(255, 255, 255, .05)"></path><path d="M864.19 0L1440 458.78999999999996L1440 498.68999999999994L288.22 0z" fill="rgba(255, 255, 255, .025)"></path><path d="M0 560L231.14 560L0 332.28999999999996z" fill="rgba(0, 0, 0, .1)"></path><path d="M0 332.28999999999996L231.14 560L786.09 560L0 274.46999999999997z" fill="rgba(0, 0, 0, .075)"></path><path d="M0 274.46999999999997L786.09 560L879.26 560L0 116.94999999999996z" fill="rgba(0, 0, 0, .05)"></path><path d="M0 116.94999999999993L879.26 560L936.16 560L0 103.73999999999992z" fill="rgba(0, 0, 0, .025)"></path></g><defs><mask id="SvgjsMask1728"><rect width="1440" height="560" fill="#ffffff"></rect></mask><linearGradient x1="15.28%" y1="-39.29%" x2="84.72%" y2="139.29%" gradientUnits="userSpaceOnUse" id="SvgjsLinearGradient1729"><stop stop-color="rgba(61, 132, 207, 0.8)" offset="0"></stop><stop stop-color="rgba(165, 31, 151, 0.82)" offset="1"></stop></linearGradient></defs></svg>